<mxfile host="app.diagrams.net" modified="2022-02-16T16:55:15.491Z" agent="5.0 (Windows NT 10.0; Win64; x64) AppleWebKit/537.36 (KHTML, like Gecko) Chrome/98.0.4758.102 Safari/537.36" etag="MYen35mY4e5Af16AU0oz" version="16.5.6" type="github" pages="2">
  <diagram id="9mL1Zicij2lJZXw4e6x_" name="子网寻址的蛋糕">
    <mxGraphModel dx="1038" dy="663" grid="1" gridSize="10" guides="1" tooltips="1" connect="1" arrows="1" fold="1" page="1" pageScale="1" pageWidth="827" pageHeight="1169" math="0" shadow="0">
      <root>
        <mxCell id="0" />
        <mxCell id="1" parent="0" />
        <mxCell id="2ii_tWx-OJRVt3j7pt6B-2" value="" style="shape=sumEllipse;perimeter=ellipsePerimeter;whiteSpace=wrap;html=1;backgroundOutline=1;" parent="1" vertex="1">
          <mxGeometry x="220" y="220" width="240" height="240" as="geometry" />
        </mxCell>
        <mxCell id="2ii_tWx-OJRVt3j7pt6B-3" value="&lt;font style=&quot;font-size: 18px&quot;&gt;192.168.1.0/24&lt;/font&gt;" style="text;html=1;align=center;verticalAlign=middle;resizable=0;points=[];autosize=1;strokeColor=none;fillColor=none;" parent="1" vertex="1">
          <mxGeometry x="20" y="370" width="140" height="20" as="geometry" />
        </mxCell>
        <mxCell id="2ii_tWx-OJRVt3j7pt6B-4" value="将这个蛋糕分成了四份" style="text;html=1;align=center;verticalAlign=middle;resizable=0;points=[];autosize=1;strokeColor=none;fillColor=none;fontSize=18;" parent="1" vertex="1">
          <mxGeometry x="460" y="290" width="200" height="30" as="geometry" />
        </mxCell>
        <mxCell id="NyI5vvPhDOnWwSGO1tNv-1" value="&lt;font style=&quot;font-size: 18px&quot;&gt;64&lt;/font&gt;" style="text;html=1;align=center;verticalAlign=middle;resizable=0;points=[];autosize=1;strokeColor=none;fillColor=none;" vertex="1" parent="1">
          <mxGeometry x="320" y="260" width="40" height="20" as="geometry" />
        </mxCell>
        <mxCell id="NyI5vvPhDOnWwSGO1tNv-2" value="&lt;font style=&quot;font-size: 18px&quot;&gt;64&lt;/font&gt;" style="text;html=1;align=center;verticalAlign=middle;resizable=0;points=[];autosize=1;strokeColor=none;fillColor=none;" vertex="1" parent="1">
          <mxGeometry x="250" y="330" width="40" height="20" as="geometry" />
        </mxCell>
        <mxCell id="NyI5vvPhDOnWwSGO1tNv-5" value="&lt;font style=&quot;font-size: 18px&quot;&gt;64&lt;/font&gt;" style="text;html=1;align=center;verticalAlign=middle;resizable=0;points=[];autosize=1;strokeColor=none;fillColor=none;" vertex="1" parent="1">
          <mxGeometry x="394" y="330" width="40" height="20" as="geometry" />
        </mxCell>
        <mxCell id="NyI5vvPhDOnWwSGO1tNv-6" value="&lt;font style=&quot;font-size: 18px&quot;&gt;64&lt;/font&gt;" style="text;html=1;align=center;verticalAlign=middle;resizable=0;points=[];autosize=1;strokeColor=none;fillColor=none;" vertex="1" parent="1">
          <mxGeometry x="320" y="400" width="40" height="20" as="geometry" />
        </mxCell>
        <mxCell id="NyI5vvPhDOnWwSGO1tNv-7" value="网络号" style="whiteSpace=wrap;html=1;fontSize=18;" vertex="1" parent="1">
          <mxGeometry x="100" y="620" width="350" height="60" as="geometry" />
        </mxCell>
        <mxCell id="NyI5vvPhDOnWwSGO1tNv-8" value="子网ID" style="whiteSpace=wrap;html=1;fontSize=18;" vertex="1" parent="1">
          <mxGeometry x="450" y="620" width="70" height="60" as="geometry" />
        </mxCell>
        <mxCell id="NyI5vvPhDOnWwSGO1tNv-9" value="主机ID" style="whiteSpace=wrap;html=1;fontSize=18;" vertex="1" parent="1">
          <mxGeometry x="520" y="620" width="140" height="60" as="geometry" />
        </mxCell>
        <mxCell id="NyI5vvPhDOnWwSGO1tNv-10" value="" style="shape=curlyBracket;whiteSpace=wrap;html=1;rounded=1;fontSize=18;rotation=90;size=0.5;" vertex="1" parent="1">
          <mxGeometry x="255" y="430" width="40" height="350" as="geometry" />
        </mxCell>
        <mxCell id="NyI5vvPhDOnWwSGO1tNv-11" value="" style="shape=curlyBracket;whiteSpace=wrap;html=1;rounded=1;fontSize=18;rotation=90;size=0.5;" vertex="1" parent="1">
          <mxGeometry x="575.78" y="535.78" width="30" height="138.44" as="geometry" />
        </mxCell>
        <mxCell id="NyI5vvPhDOnWwSGO1tNv-12" value="" style="shape=curlyBracket;whiteSpace=wrap;html=1;rounded=1;fontSize=18;rotation=90;size=0.5;" vertex="1" parent="1">
          <mxGeometry x="469.33" y="571.44" width="30" height="67.11" as="geometry" />
        </mxCell>
        <mxCell id="NyI5vvPhDOnWwSGO1tNv-13" value="2位" style="text;html=1;align=center;verticalAlign=middle;resizable=0;points=[];autosize=1;strokeColor=none;fillColor=none;fontSize=18;" vertex="1" parent="1">
          <mxGeometry x="460" y="560" width="40" height="30" as="geometry" />
        </mxCell>
        <mxCell id="NyI5vvPhDOnWwSGO1tNv-14" value="6位" style="text;html=1;align=center;verticalAlign=middle;resizable=0;points=[];autosize=1;strokeColor=none;fillColor=none;fontSize=18;" vertex="1" parent="1">
          <mxGeometry x="570" y="560" width="40" height="30" as="geometry" />
        </mxCell>
        <mxCell id="NyI5vvPhDOnWwSGO1tNv-15" value="24位" style="text;html=1;align=center;verticalAlign=middle;resizable=0;points=[];autosize=1;strokeColor=none;fillColor=none;fontSize=18;" vertex="1" parent="1">
          <mxGeometry x="250" y="560" width="50" height="30" as="geometry" />
        </mxCell>
        <mxCell id="NyI5vvPhDOnWwSGO1tNv-16" value="分配之后&amp;nbsp;" style="text;html=1;align=center;verticalAlign=middle;resizable=0;points=[];autosize=1;strokeColor=none;fillColor=none;fontSize=18;" vertex="1" parent="1">
          <mxGeometry x="20" y="530" width="90" height="30" as="geometry" />
        </mxCell>
      </root>
    </mxGraphModel>
  </diagram>
  <diagram id="5wukIEKgH5glBoSCeBXc" name="VLSM">
    <mxGraphModel dx="1483" dy="947" grid="1" gridSize="10" guides="1" tooltips="1" connect="1" arrows="1" fold="1" page="1" pageScale="1" pageWidth="827" pageHeight="1169" math="0" shadow="0">
      <root>
        <mxCell id="gBg3fA1Sxgt2u8SXo8lK-0" />
        <mxCell id="gBg3fA1Sxgt2u8SXo8lK-1" parent="gBg3fA1Sxgt2u8SXo8lK-0" />
        <mxCell id="gBg3fA1Sxgt2u8SXo8lK-6" value="" style="ellipse;whiteSpace=wrap;html=1;aspect=fixed;fontSize=18;" vertex="1" parent="gBg3fA1Sxgt2u8SXo8lK-1">
          <mxGeometry x="220" y="300" width="250" height="250" as="geometry" />
        </mxCell>
        <mxCell id="gBg3fA1Sxgt2u8SXo8lK-7" value="" style="endArrow=none;html=1;rounded=0;fontSize=18;exitX=0.5;exitY=1;exitDx=0;exitDy=0;entryX=0.5;entryY=0;entryDx=0;entryDy=0;" edge="1" parent="gBg3fA1Sxgt2u8SXo8lK-1" source="gBg3fA1Sxgt2u8SXo8lK-6" target="gBg3fA1Sxgt2u8SXo8lK-6">
          <mxGeometry width="50" height="50" relative="1" as="geometry">
            <mxPoint x="320" y="480" as="sourcePoint" />
            <mxPoint x="370" y="430" as="targetPoint" />
          </mxGeometry>
        </mxCell>
        <mxCell id="gBg3fA1Sxgt2u8SXo8lK-8" value="" style="endArrow=none;html=1;rounded=0;fontSize=18;exitX=0;exitY=1;exitDx=0;exitDy=0;" edge="1" parent="gBg3fA1Sxgt2u8SXo8lK-1" source="gBg3fA1Sxgt2u8SXo8lK-6">
          <mxGeometry width="50" height="50" relative="1" as="geometry">
            <mxPoint x="80" y="580" as="sourcePoint" />
            <mxPoint x="345" y="425" as="targetPoint" />
          </mxGeometry>
        </mxCell>
        <mxCell id="gBg3fA1Sxgt2u8SXo8lK-9" value="" style="endArrow=none;html=1;rounded=0;fontSize=18;exitX=1;exitY=0.5;exitDx=0;exitDy=0;entryX=0;entryY=0.5;entryDx=0;entryDy=0;" edge="1" parent="gBg3fA1Sxgt2u8SXo8lK-1" source="gBg3fA1Sxgt2u8SXo8lK-6" target="gBg3fA1Sxgt2u8SXo8lK-6">
          <mxGeometry width="50" height="50" relative="1" as="geometry">
            <mxPoint x="230" y="720" as="sourcePoint" />
            <mxPoint x="280" y="670" as="targetPoint" />
          </mxGeometry>
        </mxCell>
        <mxCell id="gBg3fA1Sxgt2u8SXo8lK-10" value="这样蛋糕的大小就不规整了" style="text;html=1;align=center;verticalAlign=middle;resizable=0;points=[];autosize=1;strokeColor=none;fillColor=none;fontSize=18;" vertex="1" parent="gBg3fA1Sxgt2u8SXo8lK-1">
          <mxGeometry x="510" y="390" width="230" height="30" as="geometry" />
        </mxCell>
        <mxCell id="jTl8EaUs9axaAr44W0zd-21" value="" style="endArrow=none;html=1;rounded=0;fontSize=18;exitX=0;exitY=0;exitDx=0;exitDy=0;" edge="1" parent="gBg3fA1Sxgt2u8SXo8lK-1" source="gBg3fA1Sxgt2u8SXo8lK-6">
          <mxGeometry width="50" height="50" relative="1" as="geometry">
            <mxPoint x="560" y="580" as="sourcePoint" />
            <mxPoint x="345" y="425" as="targetPoint" />
          </mxGeometry>
        </mxCell>
        <mxCell id="jTl8EaUs9axaAr44W0zd-33" value="主机ID" style="whiteSpace=wrap;html=1;fontSize=18;" vertex="1" parent="gBg3fA1Sxgt2u8SXo8lK-1">
          <mxGeometry x="1200" y="1000.72" width="120" height="60" as="geometry" />
        </mxCell>
        <mxCell id="jTl8EaUs9axaAr44W0zd-35" value="" style="shape=curlyBracket;whiteSpace=wrap;html=1;rounded=1;fontSize=18;rotation=90;size=0.5;" vertex="1" parent="gBg3fA1Sxgt2u8SXo8lK-1">
          <mxGeometry x="1242.51" y="926.78" width="33.55" height="121.44" as="geometry" />
        </mxCell>
      </root>
    </mxGraphModel>
  </diagram>
</mxfile>
